<svg width="643" height="64" viewBox="0 0 643 64" fill="none" xmlns="http://www.w3.org/2000/svg">
<path d="M642.718 0.989578C642.712 0.437323 642.26 -0.00570165 641.708 5.42871e-05C641.156 0.00581028 640.713 0.458167 640.718 1.01042L642.718 0.989578ZM641.779 6.80395L642.779 6.79352L641.779 6.80395ZM620.768 28.0228L620.768 27.0228L620.768 28.0228ZM29.243 27.6862L29.2435 26.6862L29.243 27.6862ZM8.2337 48.3512L9.23358 48.3672L9.23358 48.3672L8.2337 48.3512ZM7.28167 63.6957C7.66595 64.0924 8.29901 64.1025 8.69574 63.7183L15.1604 57.4567C15.5571 57.0724 15.5672 56.4393 15.183 56.0426C14.7987 55.6459 14.1656 55.6358 13.7689 56.0201L8.02258 61.586L2.45666 55.8396C2.07239 55.4429 1.43933 55.4328 1.0426 55.817C0.645933 56.2013 0.635801 56.8344 1.02008 57.2311L7.28167 63.6957ZM640.718 1.01042L640.779 6.81437L642.779 6.79352L642.718 0.989578L640.718 1.01042ZM620.768 27.0228L29.2435 26.6862L29.2424 28.6862L620.767 29.0228L620.768 27.0228ZM7.23382 48.3353L7.00012 62.984L8.99988 63.016L9.23358 48.3672L7.23382 48.3353ZM29.2435 26.6862C17.2252 26.6794 7.42554 36.3185 7.23382 48.3353L9.23358 48.3672C9.40784 37.4428 18.3166 28.68 29.2424 28.6862L29.2435 26.6862ZM640.779 6.81437C640.895 17.9454 631.9 27.0291 620.768 27.0228L620.767 29.0228C633.012 29.0298 642.906 19.0377 642.779 6.79352L640.779 6.81437Z" fill="#740706"/>
</svg>
