<svg xmlns="http://www.w3.org/2000/svg" xmlns:xlink="http://www.w3.org/1999/xlink" preserveAspectRatio="xMidYMid meet" version="1.0" viewBox="14.4 15.0 193.3 194.3" zoomAndPan="magnify" style="fill: rgb(241, 241, 246);" original_string_length="2606"><g id="__id247_sswvu54zoa"><path d="M 231.42773 56.804688 C 215.59916 56.804688 202.85742 69.548382 202.85742 85.376953 L 202.85742 711.0918 L 77.142578 711.0918 C 64.479721 711.0918 54.285156 721.28441 54.285156 733.94727 L 54.285156 768.23438 C 54.285156 780.89721 64.479721 791.0918 77.142578 791.0918 L 722.85742 791.0918 C 735.52028 791.0918 745.71484 780.89721 745.71484 768.23438 L 745.71484 733.94727 C 745.71484 721.28441 735.52028 711.0918 722.85742 711.0918 L 597.14258 711.0918 L 597.14258 402.65039 C 621.4464 405.58744 629.12409 415.0744 633.58789 430.91797 C 638.25221 447.47336 635.6172 472.65734 629.08398 497.70117 C 620.23554 531.62016 613.25528 571.36231 620.77344 606.3418 C 624.53256 623.83156 632.33425 640.46507 646.14453 652.83984 C 659.95485 665.21462 679.21713 672.58429 702.9707 673.75977 C 736.02218 675.39543 760.839 662.06268 772.625 640.79883 C 784.411 619.53498 784.81553 593.7631 781.49805 568.05078 C 774.86312 516.62608 751.76318 463.80764 742.95117 446.18359 C 705.65559 371.59244 718.64844 283.85547 718.64844 283.85547 L 718.83398 282.69727 L 718.83398 281.52344 C 718.83398 274.06474 716.68136 268.84834 714.02148 262.35156 C 711.3616 255.85479 707.81945 248.67501 703.64844 240.89258 C 695.30638 225.32772 684.45273 207.44877 673.62695 190.37109 C 651.97536 156.21573 630.39844 125.30078 630.39844 125.30078 L 605.60352 142.5957 C 605.60352 142.5957 617.53332 159.70546 632.42773 182.3418 L 632.42773 278.73242 C 632.42773 288.74498 640.47622 296.80664 650.47266 296.80664 L 686.88086 296.80664 C 684.52909 326.87215 683.74297 395.38829 715.90234 459.70703 C 723.10049 474.1034 745.71577 527.04332 751.50586 571.91992 C 754.4009 594.35822 752.69456 614.37773 746.17578 626.13867 C 739.657 637.89958 729.97887 644.82336 704.46094 643.56055 C 685.90591 642.64231 674.36947 637.53847 666.31836 630.32422 C 658.26721 623.10997 653.14449 613.04263 650.33789 599.98438 C 644.72465 573.86792 650.05138 537.12926 658.3457 505.33398 C 665.51547 477.85002 670.02031 448.75153 662.6875 422.72461 C 655.39838 396.85294 632.64642 375.70243 597.14258 372.24805 L 597.14258 85.376953 C 597.14258 69.548382 584.40084 56.804688 568.57227 56.804688 L 231.42773 56.804688 z M 237.86328 130.80469 L 561.2793 130.80469 L 561.2793 365.0918 L 237.86328 365.0918 L 237.86328 130.80469 z" fill-rule="evenodd" transform="scale(.26458)" style="fill: inherit;"/></g></svg>