<svg xmlns="http://www.w3.org/2000/svg" xmlns:xlink="http://www.w3.org/1999/xlink" preserveAspectRatio="xMidYMid meet" version="1.0" viewBox="-0.0 0.0 400.0 386.3" zoomAndPan="magnify" style="fill: rgb(18, 18, 14);" original_string_length="6180"><g id="__id613_sswvu54zoa"><path d="M400,353.04c0,3.55-2.88,6.43-6.43,6.43c-3.81,0-7.07,1.08-10.02,2.88c-3.28,2-6.35,4.95-9.38,8.36 c-3.51,3.94-7.47,7.69-12.1,10.55c-4.95,3.06-10.52,5.01-16.89,5.01c-6.36,0-11.79-1.8-16.7-4.8c-4.57-2.79-8.53-6.55-12.29-10.77 c-2.83-3.18-5.91-6.13-9.24-8.19c-3.01-1.86-6.37-3.05-10.16-3.05c-3.81,0-7.07,1.09-10.02,2.89c-3.28,2-6.35,4.95-9.38,8.35 c-3.51,3.94-7.47,7.69-12.1,10.55c-4.95,3.06-10.52,5.01-16.89,5.01c-6.36,0-11.79-1.81-16.7-4.8c-4.57-2.79-8.53-6.55-12.29-10.77 c-2.83-3.18-5.9-6.13-9.24-8.19c-3.01-1.86-6.37-3.05-10.16-3.05c-3.8,0-7.07,1.09-10.02,2.89c-3.32,2.03-6.38,4.97-9.4,8.34 c-3.5,3.95-7.45,7.71-12.08,10.57c-4.95,3.06-10.53,5.01-16.9,5.01c-6.36,0-11.79-1.8-16.7-4.8c-4.57-2.79-8.53-6.55-12.29-10.77 c-2.83-3.18-5.91-6.13-9.24-8.19c-3.01-1.86-6.37-3.05-10.16-3.05c-3.8,0-7.07,1.09-10.02,2.89c-3.32,2.03-6.38,4.97-9.4,8.34 c-3.49,3.95-7.45,7.71-12.08,10.57c-4.95,3.06-10.53,5.01-16.9,5.01c-6.36,0-11.79-1.81-16.7-4.8c-4.58-2.79-8.53-6.55-12.29-10.77 c-2.83-3.18-5.9-6.13-9.24-8.19c-3.01-1.86-6.37-3.05-10.16-3.05c-3.55,0-6.43-2.88-6.43-6.43c0-3.55,2.88-6.43,6.43-6.43 c6.37,0,11.94,1.95,16.89,5.01c4.63,2.86,8.58,6.61,12.1,10.55c3.04,3.4,6.1,6.36,9.38,8.36c2.95,1.8,6.21,2.89,10.02,2.89 c3.79,0,7.15-1.19,10.16-3.05c3.33-2.06,6.41-5.01,9.24-8.19h0.03c3.78-4.24,7.74-8,12.27-10.76c4.9-2.99,10.34-4.8,16.7-4.8 c6.37,0,11.94,1.95,16.89,5.01c4.63,2.86,8.59,6.61,12.1,10.55c3.03,3.4,6.1,6.36,9.38,8.36c2.95,1.8,6.21,2.89,10.02,2.89 c3.79,0,7.15-1.19,10.17-3.05c3.33-2.06,6.4-5.01,9.24-8.19h0.03c3.78-4.24,7.74-8,12.27-10.76c4.9-2.99,10.34-4.8,16.7-4.8 c6.37,0,11.94,1.95,16.89,5.01c4.63,2.86,8.58,6.61,12.1,10.55c3.04,3.4,6.11,6.36,9.38,8.36c2.95,1.8,6.21,2.89,10.02,2.89 c3.79,0,7.14-1.19,10.16-3.05c3.33-2.06,6.41-5.01,9.24-8.19c3.76-4.22,7.71-7.97,12.29-10.76c4.9-2.99,10.34-4.8,16.7-4.8 c6.37,0,11.94,1.95,16.89,5.01c4.63,2.86,8.59,6.61,12.1,10.55c3.03,3.4,6.1,6.36,9.38,8.36c2.95,1.8,6.21,2.89,10.02,2.89 c3.79,0,7.15-1.19,10.16-3.05c3.33-2.06,6.41-5.01,9.24-8.19c3.76-4.22,7.72-7.98,12.29-10.77c4.9-2.99,10.35-4.8,16.7-4.8l0,0 C397.12,346.61,400,349.49,400,353.04z M0,285.57c0-3.55,2.88-6.43,6.43-6.43c6.37,0,11.94,1.95,16.89,5.01 c4.63,2.86,8.58,6.61,12.1,10.55c3.04,3.4,6.11,6.36,9.38,8.36c2.95,1.8,6.21,2.89,10.02,2.89c3.79,0,7.15-1.19,10.16-3.05 c2.37-1.46,4.6-3.38,6.71-5.51L27.32,169.02c-1.12-3.27,0.55-6.82,3.74-8.05l45.41-17.58V83.99c0-3.55,2.88-6.43,6.43-6.43h17.59 V54.21c0-3.55,2.88-6.43,6.43-6.43h70.23V6.43c0-3.55,2.88-6.43,6.43-6.43h32.83c3.55,0,6.43,2.88,6.43,6.43v41.35h70.23 c3.55,0,6.43,2.88,6.43,6.43v23.35h17.59c3.55,0,6.43,2.88,6.43,6.43v58.92l47.02,18.02c3.31,1.26,4.98,4.97,3.71,8.29L329.52,298.6 c1.83,1.75,3.7,3.28,5.64,4.46c2.95,1.8,6.21,2.89,10.02,2.89c3.79,0,7.15-1.19,10.16-3.05c3.33-2.06,6.41-5.01,9.24-8.19 c3.76-4.22,7.72-7.97,12.29-10.77c4.9-2.99,10.34-4.8,16.7-4.8l0,0c3.55,0,6.43,2.88,6.43,6.43c0,3.55-2.88,6.43-6.43,6.43 c-3.81,0-7.07,1.09-10.02,2.89c-3.28,2-6.35,4.96-9.38,8.36c-3.51,3.94-7.47,7.69-12.1,10.55c-4.95,3.06-10.52,5.01-16.89,5.01 c-6.36,0-11.79-1.81-16.7-4.8c-4.57-2.79-8.53-6.54-12.29-10.77c-2.83-3.18-5.91-6.13-9.24-8.19c-3.02-1.86-6.37-3.05-10.16-3.05 c-3.8,0-7.07,1.09-10.02,2.89c-3.28,2-6.35,4.96-9.38,8.36c-3.51,3.94-7.47,7.69-12.1,10.55c-4.95,3.06-10.52,5.01-16.89,5.01 c-6.36,0-11.79-1.81-16.7-4.8c-4.57-2.79-8.53-6.54-12.29-10.77c-2.83-3.18-5.9-6.13-9.24-8.19c-2.58-1.6-5.42-2.69-8.56-2.97 c-0.51,0.13-1.05,0.21-1.6,0.21c-0.56,0-1.1-0.08-1.62-0.21c-3.12,0.26-5.88,1.27-8.4,2.81c-3.32,2.02-6.38,4.97-9.4,8.34 c-3.5,3.95-7.45,7.71-12.08,10.56c-4.95,3.06-10.53,5.01-16.9,5.01c-6.36,0-11.79-1.81-16.7-4.8c-4.57-2.79-8.53-6.54-12.29-10.77 c-2.83-3.18-5.91-6.13-9.24-8.19c-3.02-1.86-6.37-3.05-10.16-3.05c-3.8,0-7.07,1.09-10.02,2.89c-3.32,2.02-6.38,4.97-9.4,8.34 c-0.01,0.01-0.01,0.01-0.02,0.02c-0.03,0.03-0.05,0.06-0.08,0.09c-3.47,3.91-7.39,7.62-11.98,10.45c-4.95,3.06-10.53,5.01-16.9,5.01 c-6.36,0-11.79-1.81-16.7-4.8c-4.57-2.79-8.53-6.54-12.29-10.77c-2.83-3.18-5.9-6.13-9.24-8.19c-3.02-1.86-6.37-3.05-10.16-3.05 C2.88,292,0,289.12,0,285.57z M360.18,170.71l-45.13-17.3c-0.18-0.06-0.36-0.13-0.53-0.2l-108.08-41.44v168.07 c3.78,0.82,7.25,2.33,10.46,4.31c4.63,2.86,8.58,6.61,12.1,10.55c3.03,3.4,6.11,6.36,9.38,8.36c2.95,1.8,6.21,2.89,10.02,2.89 c3.79,0,7.14-1.19,10.16-3.05c3.33-2.06,6.41-5.01,9.24-8.19c3.76-4.22,7.71-7.97,12.29-10.77c4.9-2.99,10.34-4.8,16.7-4.8 c6.37,0,11.94,1.95,16.89,5.01c2.06,1.27,3.99,2.73,5.8,4.3L360.18,170.71z M190.01,47.78h19.98V12.86h-19.98V47.78z M113.35,77.56 h173.3V60.64H183.59c0,0,0,0,0,0s0,0,0,0h-70.23V77.56z M89.34,138.4l107.94-41.79C198.1,96.22,199.03,96,200,96 c0.97,0,1.89,0.22,2.71,0.61l107.95,41.38V90.42H89.34V138.4z M41.44,170.68l40.33,116.66c1.52-1.25,3.09-2.39,4.75-3.4 c4.9-2.99,10.34-4.8,16.7-4.8c6.37,0,11.94,1.95,16.89,5.01c4.63,2.86,8.59,6.61,12.1,10.55c3.03,3.4,6.11,6.36,9.38,8.36 c2.95,1.8,6.21,2.89,10.02,2.89c3.79,0,7.15-1.19,10.17-3.05c3.33-2.06,6.41-5.01,9.24-8.19h0.03c3.78-4.24,7.74-8,12.27-10.77 c3.16-1.93,6.56-3.36,10.27-4.14V111.79L85.64,153.57c-0.29,0.14-0.58,0.25-0.89,0.35L41.44,170.68z M253.8,156.96 c-3.55,0-6.43,2.88-6.43,6.43v0.42c0,3.55,2.88,6.43,6.43,6.43c3.55,0,6.43-2.88,6.43-6.43v-0.42 C260.23,159.84,257.35,156.96,253.8,156.96z M280.57,167.05c-3.55,0-6.43,2.88-6.43,6.43v0.42c0,3.55,2.88,6.43,6.43,6.43 s6.43-2.88,6.43-6.43v-0.42C287,169.93,284.12,167.05,280.57,167.05z M307.34,177.57c-3.55,0-6.43,2.88-6.43,6.43v0.42 c0,3.55,2.88,6.43,6.43,6.43s6.43-2.88,6.43-6.43V184C313.77,180.45,310.89,177.57,307.34,177.57z M146.2,170.24 c3.55,0,6.43-2.88,6.43-6.43v-0.42c0-3.55-2.88-6.43-6.43-6.43s-6.43,2.88-6.43,6.43v0.42C139.77,167.36,142.65,170.24,146.2,170.24 z M119.43,180.33c3.55,0,6.43-2.88,6.43-6.43v-0.42c0-3.55-2.88-6.43-6.43-6.43s-6.43,2.88-6.43,6.43v0.42 C113,177.45,115.88,180.33,119.43,180.33z M92.66,190.84c3.55,0,6.43-2.88,6.43-6.43V184c0-3.55-2.88-6.43-6.43-6.43 c-3.55,0-6.43,2.88-6.43,6.43v0.42C86.23,187.96,89.11,190.84,92.66,190.84z" style="fill: inherit;"/></g></svg>