<svg xmlns="http://www.w3.org/2000/svg" xmlns:xlink="http://www.w3.org/1999/xlink" data-name="Layer 2" preserveAspectRatio="xMidYMid meet" version="1.0" viewBox="359.5 269.8 1300.0 1482.5" zoomAndPan="magnify" style="fill: rgb(0, 0, 0);" original_string_length="1042"><g id="__id611_sswvu54zoa"><path d="M958,1363.28a59.52,59.52,0,0,1-42.08-17.43L800.36,1230.33a59.5,59.5,0,0,1,84.15-84.15L958,1219.64l203.53-203.54a59.5,59.5,0,0,1,84.15,84.14L1000,1345.85A59.49,59.49,0,0,1,958,1363.28Z" style="fill: rgb(241, 241, 246);"/></g><g id="__id612_sswvu54zoa"><path d="M1659.45,745.06,1227.5,270H581.55a220.49,220.49,0,0,0-158,66.08c-41.32,41.88-63.92,98.71-63.92,157.54v1036.6a220.52,220.52,0,0,0,66.08,158c41.88,41.32,98.71,63.92,157.54,63.92h854.28a220.51,220.51,0,0,0,158-66.09c41.32-41.87,63.92-98.71,63.92-157.54V745.06ZM1281,1135.6l-245.62,245.61a109.5,109.5,0,0,1-154.85,0L765,1265.69a109.5,109.5,0,0,1,154.86-154.86l38.1,38.09,168.18-168.18A109.5,109.5,0,0,1,1281,1135.6Zm52.92-450.54a46.47,46.47,0,0,1-46.42-46.42V425.15l236.31,259.91Z" style="fill: rgb(241, 241, 246);"/></g></svg>