<svg xmlns="http://www.w3.org/2000/svg" xmlns:xlink="http://www.w3.org/1999/xlink" preserveAspectRatio="xMidYMid meet" version="1.0" viewBox="-0.0 -0.1 111.8 107.8" zoomAndPan="magnify" style="fill: rgb(18, 18, 14);" original_string_length="2430"><g data-name="31" id="__id620_sswvu54zoa"><path d="M27.229,16.9a3.7,3.7,0,0,1,3.75-3.554,3.633,3.633,0,1,1-.169,7.264A3.666,3.666,0,0,1,27.229,16.9ZM75.7,56.825c-.892.892-1.826,1.745-2.84,2.711a9.656,9.656,0,0,1,5.207,6.2c.349-.326.641-.583.916-.858q10.376-10.4,20.757-20.8a11.215,11.215,0,0,1,1.85-1.485c1.248-.8,1.373-1.123.733-2.484a5.237,5.237,0,0,0-8.545-1.4Q84.729,47.756,75.7,56.825ZM110.971,47.9a5.155,5.155,0,0,0-8.346-1.235Q90.046,59.233,77.507,71.843a3.676,3.676,0,0,0-.562.656c-1.934,3.192-4.859,4.457-8.482,4.451q-13.935-.022-27.871-.009a6.972,6.972,0,0,1-1.291-.105,1.737,1.737,0,0,1-1.518-1.826,1.782,1.782,0,0,1,1.488-1.869,5.393,5.393,0,0,1,1.293-.075q13.935,0,27.87-.009a9.076,9.076,0,0,0,1.937-.166,5.144,5.144,0,0,0,3.181-7.852,5.365,5.365,0,0,0-4.908-2.405q-21.2.036-42.4.018a5.474,5.474,0,0,0-4.063,1.715Q11.475,75.133.734,85.862A2.305,2.305,0,0,0,0,87.666c.025,6.289.015,12.578.015,18.867v1.084a1.97,1.97,0,0,0,.369.122c5.748.009,11.5.024,17.243-.005a1.773,1.773,0,0,0,1.076-.555c1.3-1.3,2.506-2.711,3.86-3.956A6.052,6.052,0,0,1,25,101.779c15.492-3.956,31-7.832,46.494-11.8a13.33,13.33,0,0,0,3.979-1.866A24.276,24.276,0,0,0,79.075,85Q94.3,69.786,109.47,54.517a8.819,8.819,0,0,0,1.522-1.954A4.7,4.7,0,0,0,110.971,47.9ZM15.122,17.847a1.415,1.415,0,0,1,.016-1.73Q19.79,8.549,24.358.931A1.625,1.625,0,0,1,25.967,0Q35.4.047,44.834,0a1.446,1.446,0,0,1,1.452.817c1.631,2.769,3.344,5.489,4.976,8.258a2.277,2.277,0,0,0,2.386,1.332,5.158,5.158,0,0,1,5.3,2.254,19.987,19.987,0,0,0,1.973,2.009c1.4,1.389,2.239,1.383,3.661-.044,1.095-1.1,2.177-2.212,3.393-3.449,1.268,1.285,2.423,2.474,3.6,3.643s2.125,1.168,3.277.03c1.181-1.167,2.336-2.361,3.608-3.65,1.182,1.19,2.312,2.335,3.45,3.471,1.365,1.363,2.24,1.369,3.589.027q1.92-1.913,3.828-3.838c.549-.556,1.1-.67,1.661-.051,1.847,2.029,3.686,4.066,5.6,6.179-1.932,2.136-3.818,4.26-5.766,6.326-.233.247-.8.252-1.207.252-11.783.013-23.566.033-35.348-.017A3.3,3.3,0,0,0,50.948,25.4c-1.474,2.649-3.142,5.188-4.681,7.8a1.456,1.456,0,0,1-1.462.81q-9.434-.042-18.867,0a1.562,1.562,0,0,1-1.531-.9Q19.8,25.464,15.122,17.847Zm8.278-.842a7.491,7.491,0,0,0,7.51,7.516,7.517,7.517,0,1,0-.032-15.034A7.431,7.431,0,0,0,23.4,17.005Z" style="fill: inherit;"/></g></svg>