<svg xmlns="http://www.w3.org/2000/svg" xmlns:xlink="http://www.w3.org/1999/xlink" clip-rule="evenodd" fill-rule="evenodd" preserveAspectRatio="xMidYMid meet" stroke-linejoin="round" stroke-miterlimit="2" version="1.0" viewBox="0.0 65.2 500.0 370.4" zoomAndPan="magnify" style="fill: rgb(18, 18, 14);" original_string_length="2555"><g><g><path d="M0 0H500V500H0z" style="fill: none;"/><clipPath id="__id609_sswvu54zoa"><path d="M0 0H500V500H0z"/></clipPath><g clip-path="url(#__id609_sswvu54zoa)"><g id="__id610_sswvu54zoa"><path d="M1744.39,808.299C1735.66,808.405 1727.31,811.89 1721.12,818.014L1587.18,950.471C1574.03,963.473 1573.98,984.606 1587.06,997.677L1614.91,1025.5L1260.14,1379.15L1233.63,1352.67C1220.55,1339.61 1199.29,1339.55 1186.14,1352.56L1052.21,1485.01C1039.06,1498.02 1039.01,1519.15 1052.08,1532.22L1389.64,1869.44C1402.73,1882.51 1423.99,1882.57 1437.14,1869.56L1571.08,1737.11C1584.22,1724.1 1584.28,1702.97 1571.19,1689.9L1543.34,1662.07L1654.09,1551.67L2302.48,2184.17C2315.72,2197.08 2336.94,2196.85 2349.89,2183.64L2427.94,2104.06C2440.89,2090.86 2440.65,2069.69 2427.42,2056.78L1780.48,1425.68L1898.11,1308.42L1924.62,1334.9C1937.7,1347.97 1958.96,1348.02 1972.11,1335.02L2106.04,1202.56C2119.19,1189.56 2119.25,1168.42 2106.17,1155.35L1768.61,818.13C1762.2,811.735 1753.47,808.188 1744.39,808.299ZM1744.68,888.886L2034.86,1178.78L1948.54,1264.15L1923.04,1238.67C1922.66,1238.25 1922.28,1237.84 1921.89,1237.44L1796.99,1112.75L1658.36,974.256L1744.68,888.886ZM1662.25,1072.86L1755.31,1165.77L1850.74,1261.1L1496,1614.71L1407.36,1526.23L1307.52,1426.48L1662.25,1072.86ZM1209.71,1423.42L1235.25,1448.93C1235.61,1449.34 1235.98,1449.74 1236.36,1450.13L1359.14,1572.7L1499.9,1713.32L1413.58,1798.69L1123.39,1508.8L1209.71,1423.42ZM1741.47,1481.18L2356.57,2081.2L2325.4,2112.98L1710.31,1512.96L1741.47,1481.18ZM792.647,2015.79C780.565,2015.6 769.322,2021.94 763.227,2032.38C757.133,2042.81 757.133,2055.72 763.227,2066.16C769.322,2076.59 780.565,2082.93 792.647,2082.75L1511.87,2082.75C1523.95,2082.93 1535.2,2076.59 1541.29,2066.16C1547.39,2055.72 1547.39,2042.81 1541.29,2032.38C1535.2,2021.94 1523.95,2015.6 1511.87,2015.79L792.647,2015.79ZM596.497,2126.77C584.415,2126.59 573.172,2132.93 567.078,2143.37C560.983,2153.8 560.983,2166.71 567.078,2177.14C573.172,2187.58 584.415,2193.92 596.497,2193.74L1708.02,2193.74C1720.1,2193.92 1731.35,2187.58 1737.44,2177.14C1743.54,2166.71 1743.54,2153.8 1737.44,2143.37C1731.35,2132.93 1720.1,2126.59 1708.02,2126.77L596.497,2126.77Z" fill-rule="nonzero" transform="matrix(.26667 0 0 .26667 -150.002 -150.273)" style="fill: inherit;"/></g></g></g></g></svg>