<svg xmlns="http://www.w3.org/2000/svg" xmlns:xlink="http://www.w3.org/1999/xlink" data-name="Layer 2" preserveAspectRatio="xMidYMid meet" version="1.0" viewBox="628.3 498.8 759.9 993.1" zoomAndPan="magnify" style="fill: rgb(18, 18, 14);" original_string_length="2475"><g id="__id4243_sswvu54zoa"><path d="M784.335,1256.953h-14.22c-78.185,0-141.793,63.608-141.793,141.793v79.17a14,14,0,0,0,14,14H912.129a14,14,0,0,0,14-14v-79.17C926.129,1320.562,862.521,1256.953,784.335,1256.953Z" style="fill: inherit;"/></g><g id="__id4244_sswvu54zoa"><path d="M777.325,1240.54a85.555,85.555,0,1,0-85.555-85.555A85.652,85.652,0,0,0,777.325,1240.54Z" style="fill: inherit;"/></g><g id="__id4245_sswvu54zoa"><path d="M1282.614,498.805H948.728a105.722,105.722,0,0,0-105.6,105.6V919.232a105.721,105.721,0,0,0,105.6,105.6h72.863l-33.285,82.488a14,14,0,0,0,20.881,16.8l145.321-99.286h128.106a105.722,105.722,0,0,0,105.6-105.6V604.408A105.722,105.722,0,0,0,1282.614,498.805Zm-172.365,463.3a53.363,53.363,0,0,1-39.521-16.889,56.531,56.531,0,0,1-14.839-38.811c0-32.009,23.562-56.146,54.806-56.146,30.99,0,54.36,24.138,54.36,56.146C1165.056,938.163,1141.495,962.108,1110.25,962.108ZM1175,743.285l-.043.051c-16.755,19.8-19.669,32.688-18.889,45.945q.017.283.028.567a39.185,39.185,0,0,1-39.156,40.693h-12.866a39.185,39.185,0,0,1-39.07-36.18l-.065-.852c-3.511-33.021,8.264-66.829,34.073-97.8l.167-.2c17.946-21.136,24.618-32.813,24.618-43.085,0-2.033-.246-5.677-1.9-7.236-1.536-1.452-5.693-3.042-12.767-3.186a57.255,57.255,0,0,0-20.7,4.188,42.659,42.659,0,0,1-16.295,3.223,43.086,43.086,0,0,1-18.013-82.21c18.508-8.5,41.568-13.369,63.268-13.369,39.62,0,63.375,15.368,76.326,28.261,16.95,16.873,26.285,40.1,26.285,65.415C1220.009,689.842,1195.055,719.475,1175,743.285Z" style="fill: inherit;"/></g><g id="__id4246_sswvu54zoa"><path d="M1117.4,581.835c-17.993,0-37.019,4.128-51.587,10.815a15.086,15.086,0,0,0,6.332,28.764,14.828,14.828,0,0,0,5.649-1.121A85.511,85.511,0,0,1,1109.356,614c28.147.446,42.443,15.637,42.443,38.422,0,20.1-11.169,37.529-31.274,61.208-22.338,26.807-30.381,53.166-27.7,77.292l.1,1.288a11.185,11.185,0,0,0,11.153,10.328h12.866a11.185,11.185,0,0,0,11.177-11.616c-1.34-22.785,5.808-42.443,25.466-65.675,21.445-25.466,38.422-47.358,38.422-77.738C1192.009,613.556,1168.777,581.835,1117.4,581.835Z" style="fill: inherit;"/></g><g id="__id4247_sswvu54zoa"><path d="M1110.7,878.262c-15.637,0-26.806,11.616-26.806,28.146,0,15.637,10.722,27.7,26.359,27.7,16.531,0,26.807-12.062,26.807-27.7C1137.056,889.878,1126.334,878.262,1110.7,878.262Z" style="fill: inherit;"/></g></svg>