<svg xmlns="http://www.w3.org/2000/svg" xmlns:xlink="http://www.w3.org/1999/xlink" preserveAspectRatio="xMidYMid meet" version="1.0" viewBox="615.9 452.1 1220.8 1548.2" zoomAndPan="magnify" style="fill: rgb(0, 0, 0);" original_string_length="4172"><g id="__id334_sswvu54zoa" style="fill: rgb(241, 241, 246);"><path d="M 1226.292969 1553.636719 C 955.03125 1553.636719 735.160156 1333.765625 735.160156 1062.5 C 735.160156 791.324219 955.03125 571.445312 1226.292969 571.445312 C 1497.476562 571.445312 1717.34375 791.324219 1717.34375 1062.5 C 1717.34375 1333.765625 1497.476562 1553.636719 1226.292969 1553.636719 Z M 1226.292969 452.148438 C 889.15625 452.148438 615.851562 725.375 615.851562 1062.5 C 615.851562 1603.386719 1226.292969 2000.347656 1226.292969 2000.347656 C 1226.292969 2000.347656 1836.65625 1603.386719 1836.65625 1062.5 C 1836.65625 725.375 1563.34375 452.148438 1226.292969 452.148438" style="fill: inherit;"/><path d="M 1434.378906 1150.640625 C 1414.011719 1150.640625 1371.78125 1150.640625 1371.78125 1116.351562 C 1371.78125 1087.050781 1405.078125 1053.671875 1434.378906 1053.671875 C 1463.679688 1053.671875 1487.570312 1077.558594 1487.570312 1106.859375 C 1487.570312 1133.859375 1467.191406 1150.640625 1434.378906 1150.640625 Z M 1331.359375 1192.699219 C 1331.359375 1196.050781 1328.648438 1198.839844 1325.21875 1198.839844 L 1127.28125 1198.839844 C 1123.921875 1198.839844 1121.148438 1196.050781 1121.148438 1192.699219 L 1121.148438 1144.011719 C 1121.148438 1140.660156 1123.921875 1137.960938 1127.28125 1137.960938 L 1325.21875 1137.960938 C 1328.648438 1137.960938 1331.359375 1140.660156 1331.359375 1144.011719 Z M 1018.199219 1150.640625 C 985.382812 1150.640625 965.015625 1133.859375 965.015625 1106.859375 C 965.015625 1077.558594 988.828125 1053.671875 1018.199219 1053.671875 C 1047.410156 1053.671875 1080.800781 1087.050781 1080.800781 1116.351562 C 1080.800781 1150.640625 1038.488281 1150.640625 1018.199219 1150.640625 Z M 1060.011719 911.609375 C 1067.789062 893.039062 1091.441406 877.410156 1111.570312 877.410156 L 1341.019531 877.410156 C 1361.140625 877.410156 1384.710938 893.039062 1392.570312 911.609375 L 1424.238281 987.230469 C 1374.160156 975.269531 1308.121094 969.21875 1226.289062 969.21875 C 1144.378906 969.21875 1078.429688 975.269531 1028.261719 987.230469 Z M 1541.488281 1086.078125 C 1541.488281 1050.070312 1518.671875 1022.421875 1473.328125 1002.941406 L 1506.878906 999.589844 C 1510.320312 999.261719 1513.429688 997.609375 1515.640625 995 C 1517.851562 992.300781 1518.910156 988.941406 1518.578125 985.5 L 1516.78125 966.851562 C 1516.128906 959.898438 1510.160156 954.660156 1503.039062 955.148438 L 1432.488281 954.410156 L 1411.308594 903.761719 C 1400.25 877.570312 1369.410156 857.03125 1341.019531 857.03125 L 1111.570312 857.03125 C 1083.089844 857.03125 1052.238281 877.570312 1041.28125 903.761719 L 1020 954.410156 L 949.46875 955.148438 C 942.347656 954.660156 936.371094 959.898438 935.714844 966.851562 L 934.003906 985.5 C 933.671875 988.941406 934.648438 992.300781 936.859375 995 C 939.074219 997.609375 942.179688 999.261719 945.617188 999.589844 L 979.167969 1002.941406 C 933.832031 1022.421875 911.003906 1050.070312 911.003906 1086.078125 L 911.003906 1092.289062 C 910.925781 1124.609375 910.757812 1157.929688 936.859375 1184.109375 C 939.808594 1187.058594 943.164062 1189.921875 946.761719 1192.621094 L 946.761719 1256.359375 C 946.761719 1266.75 955.273438 1275.261719 965.664062 1275.261719 L 1051.921875 1275.261719 C 1062.300781 1275.261719 1070.730469 1266.75 1070.730469 1256.359375 L 1070.730469 1231.078125 C 1112.710938 1236.308594 1164.101562 1238.769531 1226.289062 1238.769531 C 1288.398438 1238.769531 1339.871094 1236.308594 1381.769531 1231.078125 L 1381.769531 1256.359375 C 1381.769531 1266.75 1390.199219 1275.261719 1400.578125 1275.261719 L 1486.910156 1275.261719 C 1497.300781 1275.261719 1505.738281 1266.75 1505.738281 1256.359375 L 1505.738281 1192.621094 C 1509.328125 1189.921875 1512.691406 1187.058594 1515.640625 1184.109375 C 1541.738281 1157.929688 1541.660156 1124.609375 1541.488281 1092.289062 L 1541.488281 1086.078125" style="fill: inherit;"/></g></svg>