<svg xmlns="http://www.w3.org/2000/svg" xmlns:xlink="http://www.w3.org/1999/xlink" preserveAspectRatio="xMidYMid meet" version="1.0" viewBox="3.0 2.7 58.3 58.3" zoomAndPan="magnify" style="fill: rgb(18, 18, 14);" original_string_length="2037"><g data-name="Layer 17" id="__id621_sswvu54zoa"><path d="M35.06,20.34l3.6-3.59-1.88-1.88a1,1,0,0,0-1.43,0l-2.92,2.91c.13.11.27.2.39.32Z" style="fill: inherit;"/><path d="M39.08,24.34,43,20.46A1,1,0,0,0,43,19l-1.18-1.17a1,1,0,0,0-1.42,0l-3.89,3.88Z" style="fill: inherit;"/><path d="M41.79,27a1,1,0,0,1,0,1.42l-1.18,1.17a4.91,4.91,0,0,1-1.32.92l.08.08a1,1,0,0,0,1.42,0l.59-.59h0L46,25.46A1,1,0,0,0,46,24l-1.89-1.88-3.6,3.59Z" style="fill: inherit;"/><path d="M18,15.74a7.3,7.3,0,0,0,7.19,1,1,1,0,0,1,1.08.22l.62.63a4.54,4.54,0,0,1,3.68-.77l.61-.61-2.07-2.08a1,1,0,0,1-.22-1.08A7.27,7.27,0,0,0,27.16,5.2a7.43,7.43,0,0,0-6.38-2.12l3.51,3.51a4.13,4.13,0,0,1,1.23,2.94,3.94,3.94,0,0,1-1.15,2.8,4.09,4.09,0,0,1-5.75-.08L15.11,8.74A7.46,7.46,0,0,0,18,15.74Z" style="fill: inherit;"/><path d="M58.79,36.75a7.31,7.31,0,0,0-7.91-1.69,1,1,0,0,1-1.09-.22l-1.18-1.18L46.21,36h0l-.44.44L47,37.67a1,1,0,0,1,.22,1.08,7.24,7.24,0,0,0,1,7.16,7.53,7.53,0,0,0,7,2.85l-3.51-3.5a4.13,4.13,0,0,1-1.23-2.95,3.88,3.88,0,0,1,1.15-2.79,4.08,4.08,0,0,1,5.75.08l3.52,3.51A7.36,7.36,0,0,0,58.79,36.75Z" style="fill: inherit;"/><path d="M3 52.41L3 61 13.59 61 22.59 52 13 42.41 3 52.41z" style="fill: inherit;"/><path d="M40.79,34.87a3,3,0,0,1-.87-2A3,3,0,0,1,38,32l-1-1a5,5,0,0,1-3.46-1.45l-.06-.06a9.23,9.23,0,0,1,.07,1.18,9.44,9.44,0,0,1-2.78,6.71L29.34,36a7.46,7.46,0,0,0,0-10.58A1,1,0,0,1,30.76,24l4.18,4.17a3,3,0,0,0,4.26,0l.46-.46-8.25-8.23a2.7,2.7,0,0,0-3.72,0L23,24.17v8.58a1,1,0,0,1-.27.68l-2.85,3.06,8.84,8.85,2.57-2.77a1,1,0,0,1,.73-.32h5.11l5.64-5.63A2.77,2.77,0,0,1,42,36Z" style="fill: inherit;"/><path d="M49.28,29.75A1,1,0,0,0,49,29L47.1,27.16l-4.31,4.3h0L42.2,32a1,1,0,0,0,0,1.42l1.18,1.17a1,1,0,0,0,1.42,0l.09-.09h0L49,30.46A1,1,0,0,0,49.28,29.75Z" style="fill: inherit;"/><path d="M18.46 35.81H23.53V52.19H18.46z" transform="rotate(-45 21.005 44)" style="fill: inherit;"/></g></svg>