<svg xmlns="http://www.w3.org/2000/svg" xmlns:xlink="http://www.w3.org/1999/xlink" preserveAspectRatio="xMidYMid meet" version="1.0" viewBox="1.4 1.7 547.3 468.1" zoomAndPan="magnify" style="fill: rgb(18, 18, 14);" original_string_length="1217"><g><g id="__id614_sswvu54zoa"><path d="m1058.2 1565.2h528v-148h-426l-102 148" transform="matrix(.3 0 0 -.3 0 471.25)" style="fill: inherit;"/><path d="m1588.2 1371.2h-424l-85-107h100c0.07-119.59 93.54-203.04 203-203 104.72-0.04 205.96 83.41 206 207v103" transform="matrix(.3 0 0 -.3 0 471.25)" style="fill: inherit;"/><path d="m1089.2 360.25 481 639h-491c-54.25-0.09-98-20.484-125-58l-401-524c-82.898-109.91 78.758-223.18 155-119l381 504v-442" transform="matrix(.3 0 0 -.3 0 471.25)" style="fill: inherit;"/><path d="m1691.25,999.25c78.24.309 137.73-67.586 138-151v-843h-740v230h539v105h-427l490,659" transform="matrix(.3 0 0 -.3 0 471.25)" style="fill: inherit;"/><path d="m899.25 5.25c58.285-0.30469 89.598 46.621 90 95v135h-760v-134c0.305-48.379 31.617-96.305 90-96h580" transform="matrix(.3 0 0 -.3 0 471.25)" style="fill: inherit;"/><path d="m5.25 327.25c-0.46094-59.973 45.527-91.922 92-92h132v767h-131c-46.5 0.04-93.461-31.91-93-92v-583" transform="matrix(.3 0 0 -.3 0 471.25)" style="fill: inherit;"/></g></g></svg>