<svg preserveAspectRatio="xMidYMid meet" version="1.0" viewBox="1.0 38.5 510.0 439.1" xmlns="http://www.w3.org/2000/svg" xmlns:xlink="http://www.w3.org/1999/xlink" zoomAndPan="magnify" style="fill: rgb(255, 255, 255);" original_string_length="984"><g><g id="__id202_sjm3a994r"><circle cx="256" cy="218.497" r="45" style="fill: inherit;"/><circle cx="376" cy="218.497" r="45" style="fill: inherit;"/><circle cx="136" cy="218.497" r="45" style="fill: inherit;"/><path d="M428,38.497H84c-45.767,0-83,37.233-83,83v194c0,45.767,37.233,83,83,83h52v60c0,12.038,13.456,19.06,23.32,12.48 l108.722-72.48H428c45.767,0,83-37.233,83-83v-194C511,75.731,473.767,38.497,428,38.497z M481,315.497c0,29.225-23.775,53-53,53 H263.5c-2.961,0-5.856,0.877-8.32,2.52L166,430.47v-46.973c0-8.284-6.716-15-15-15H84c-29.225,0-53-23.775-53-53v-194 c0-29.225,23.775-53,53-53h344c29.225,0,53,23.775,53,53V315.497z" style="fill: inherit;"/></g></g></svg>