<svg xmlns="http://www.w3.org/2000/svg" xmlns:xlink="http://www.w3.org/1999/xlink" fill="none" preserveAspectRatio="xMidYMid meet" style="fill: none;" version="1.0" viewBox="1.0 2.0 22.0 21.0" zoomAndPan="magnify" original_string_length="1835"><g id="__id876_sfmj4h810l"><path clip-rule="evenodd" d="M1 6C1 4.34315 2.34315 3 4 3H20C21.6569 3 23 4.34315 23 6V20C23 21.6569 21.6569 23 20 23H4C2.34315 23 1 21.6569 1 20V6ZM4 5C3.44772 5 3 5.44772 3 6V20C3 20.5523 3.44772 21 4 21H20C20.5523 21 21 20.5523 21 20V6C21 5.44772 20.5523 5 20 5H4Z" fill-rule="evenodd" style="fill: rgb(241, 241, 246);"/></g><g id="__id877_sfmj4h810l"><path clip-rule="evenodd" d="M1 6C1 4.34315 2.34315 3 4 3H20C21.6569 3 23 4.34315 23 6V9C23 9.55228 22.5523 10 22 10H2C1.44772 10 1 9.55228 1 9V6ZM4 5C3.44772 5 3 5.44772 3 6V8H21V6C21 5.44772 20.5523 5 20 5H4Z" fill-rule="evenodd" style="fill: rgb(241, 241, 246);"/></g><g id="__id878_sfmj4h810l"><path clip-rule="evenodd" d="M6 2V5.5H4V2H6Z" fill-rule="evenodd" style="fill: rgb(241, 241, 246);"/></g><g id="__id879_sfmj4h810l"><path clip-rule="evenodd" d="M13 2V5.5H11V2H13Z" fill-rule="evenodd" style="fill: rgb(241, 241, 246);"/></g><g id="__id880_sfmj4h810l"><path clip-rule="evenodd" d="M20 2V5.5H18V2H20Z" fill-rule="evenodd" style="fill: rgb(241, 241, 246);"/></g><g id="__id881_sfmj4h810l"><path clip-rule="evenodd" d="M7.5 14H5.5V12H7.5V14Z" fill-rule="evenodd" style="fill: rgb(241, 241, 246);"/></g><g id="__id882_sfmj4h810l"><path clip-rule="evenodd" d="M7.5 18H5.5V16H7.5V18Z" fill-rule="evenodd" style="fill: rgb(241, 241, 246);"/></g><g id="__id883_sfmj4h810l"><path clip-rule="evenodd" d="M13 14H11V12H13V14Z" fill-rule="evenodd" style="fill: rgb(241, 241, 246);"/></g><g id="__id884_sfmj4h810l"><path clip-rule="evenodd" d="M13 18H11V16H13V18Z" fill-rule="evenodd" style="fill: rgb(241, 241, 246);"/></g><g id="__id885_sfmj4h810l"><path clip-rule="evenodd" d="M18.5 14H16.5V12H18.5V14Z" fill-rule="evenodd" style="fill: rgb(241, 241, 246);"/></g><g id="__id886_sfmj4h810l"><path clip-rule="evenodd" d="M18.5 18H16.5V16H18.5V18Z" fill-rule="evenodd" style="fill: rgb(241, 241, 246);"/></g></svg>